<?xml version="1.0" encoding="UTF-8" standalone="no"?>
<svg width="601px" height="101px" viewBox="0 0 601 101" version="1.1" xmlns="http://www.w3.org/2000/svg" xmlns:xlink="http://www.w3.org/1999/xlink">
    <!-- Generator: Sketch 41 (35326) - http://www.bohemiancoding.com/sketch -->
    <title>ia-frame</title>
    <desc>Created with Sketch.</desc>
    <defs></defs>
    <g id="main" stroke="none" stroke-width="1" fill="none" fill-rule="evenodd" stroke-linecap="square">
        <g id="home-desktop-copy-3" transform="translate(-202.000000, -1139.000000)" stroke="#F4F4F1" stroke-width="0.694444444">
            <g id="Group-19" transform="translate(36.000000, 1011.000000)">
                <g id="ia-frame" transform="translate(166.000000, 128.000000)">
                    <path d="M350.5,-249.25 C350.5,-249.25 314.606441,-237.722806 298.783064,-145.415114 C291.647677,-103.789925 289.134663,-73.2940956 282.57375,-27.1458834 C277.605528,7.79965155 265.998265,44.5799244 250.5,50.75 M350.5,-99.25 C350.5,-99.25 314.606441,-93.4864032 298.783064,-47.3325571 C291.647677,-26.5199626 289.134663,-11.2720478 282.57375,11.8020583 C277.605528,29.2748258 265.998265,47.6649622 250.5,50.75 M250.5,50.75 C265.007035,56.7834285 277.605528,93.7003485 282.57375,128.645883 C289.134663,174.794096 291.647677,205.289925 298.783064,246.915114 C314.606441,339.222806 350.5,350.75 350.5,350.75 M250.5,50.75 C265.007035,53.7667143 277.605528,72.2251742 282.57375,89.6979417 C289.134663,112.772048 291.647677,128.019963 298.783064,148.832557 C314.606441,194.986403 350.5,200.75 350.5,200.75" id="Combined-Shape" transform="translate(300.500000, 50.750000) rotate(-270.000000) translate(-300.500000, -50.750000) "></path>
                </g>
            </g>
        </g>
    </g>
</svg>