<?xml version="1.0" encoding="UTF-8" standalone="no"?>
<svg width="27px" height="21px" viewBox="0 0 27 21" version="1.1" xmlns="http://www.w3.org/2000/svg" xmlns:xlink="http://www.w3.org/1999/xlink">
    <!-- Generator: Sketch 43.2 (39069) - http://www.bohemiancoding.com/sketch -->
    <title>Group</title>
    <desc>Created with Sketch.</desc>
    <defs></defs>
    <g id="Symbols" stroke="none" stroke-width="1" fill="none" fill-rule="evenodd">
        <g id="icon-citation" transform="translate(0.000000, -5.000000)" fill="#363636">
            <g id="Group" transform="translate(0.000000, 5.000000)">
                <path d="M8.984375,20.8046875 C8.535154,20.8046875 8.12825703,20.7363288 7.76367188,20.5996094 L7.76367188,19.2226562 C8.18034062,19.3658861 8.54492031,19.4375 8.85742188,19.4375 C9.35221602,19.4375 9.73307158,19.2356791 10,18.8320312 C10.2669284,18.4283834 10.48177,17.8522173 10.6445312,17.1035156 L12.8613281,6.53710938 L10.9765625,6.53710938 L11.1035156,5.8828125 L13.1152344,5.23828125 L13.3398438,4.26171875 C13.6393244,2.95962891 14.0543593,2.04004175 14.5849609,1.50292969 C15.1155625,0.965817627 15.9016875,0.697265625 16.9433594,0.697265625 C17.2037773,0.697265625 17.5227846,0.734700146 17.9003906,0.809570312 C18.2779967,0.884440479 18.5709625,0.967447461 18.7792969,1.05859375 L18.359375,2.31835938 C17.8645809,2.12955635 17.4186218,2.03515625 17.0214844,2.03515625 C16.4550753,2.03515625 16.0205093,2.19303228 15.7177734,2.50878906 C15.4150375,2.82454585 15.1692718,3.40233955 14.9804688,4.2421875 L14.7363281,5.296875 L17.0605469,5.296875 L16.8164062,6.53710938 L14.5019531,6.53710938 L12.2363281,17.2597656 C11.9824206,18.4902405 11.5917995,19.388669 11.0644531,19.9550781 C10.5371067,20.5214872 9.8437543,20.8046875 8.984375,20.8046875 Z" id="f"></path>
                <polygon id="&lt;" points="6.24023438 12.5820312 0.609375 10.109375 0.609375 9.53515625 6.24023438 6.72851562 6.24023438 7.6015625 1.65820312 9.77539062 6.24023438 11.6972656"></polygon>
                <polygon id="&gt;" points="20.609375 11.6972656 25.1972656 9.78710938 20.609375 7.6015625 20.609375 6.72851562 26.2402344 9.53515625 26.2402344 10.109375 20.609375 12.5820312"></polygon>
            </g>
        </g>
    </g>
</svg>