<?xml version="1.0" encoding="UTF-8" standalone="no"?>
<svg width="16px" height="17px" viewBox="0 0 16 17" version="1.1" xmlns="http://www.w3.org/2000/svg" xmlns:xlink="http://www.w3.org/1999/xlink">
    <!-- Generator: Sketch 43.2 (39069) - http://www.bohemiancoding.com/sketch -->
    <title>d-3</title>
    <desc>Created with Sketch.</desc>
    <defs></defs>
    <g id="Page-1" stroke="none" stroke-width="1" fill="none" fill-rule="evenodd">
        <g id="d-3" transform="translate(8.000000, 8.500000) rotate(-270.000000) translate(-8.000000, -8.500000) translate(0.000000, 1.000000)" stroke="#4A4948">
            <circle id="Oval-2" cx="1.81450831" cy="1.81450831" r="1.28618421"></circle>
            <circle id="Oval-2-Copy-5" cx="7.81450831" cy="12.8145083" r="1.28618421"></circle>
            <circle id="Oval-2-Copy-5-Copy" cx="7.81450831" cy="1.81450831" r="1.28618421"></circle>
            <circle id="Oval-2-Copy-6" cx="13.8145083" cy="1.81450831" r="1.28618421"></circle>
            <g id="Group-2" transform="translate(3.000000, 6.000000)">
                <circle id="Oval-2-Copy" transform="translate(1.814508, 1.814508) rotate(-49.000000) translate(-1.814508, -1.814508) " cx="1.81450844" cy="1.81450797" r="1.28618421"></circle>
                <circle id="Oval-2-Copy-6-Copy" transform="translate(7.814508, 1.814508) rotate(-49.000000) translate(-7.814508, -1.814508) " cx="7.81450844" cy="1.81450797" r="1.28618421"></circle>
            </g>
            <path d="M7.71133543,11.9009977 L5.6553005,9 L7.71133543,11.9009977 Z M10.0650144,9 L7.9981141,11.9009977 L10.0650144,9 Z" id="Combined-Shape" stroke-linecap="round"></path>
            <path d="M4.86015743,6.29598806 L5.06501437,6.60222381 L4.86015743,6.29598806 L7.06501437,3 L4.86015743,6.29598806 Z M4.86015743,6.29598806 L4.6553005,6.60222381 L4.86015743,6.29598806 L2.6553005,3 L4.86015743,6.29598806 Z" id="Combined-Shape" stroke-linecap="round"></path>
            <path d="M10.8601574,6.29598806 L11.0650144,6.60222381 L10.8601574,6.29598806 L13.0650144,3 L10.8601574,6.29598806 Z M10.8601574,6.29598806 L10.6553005,6.60222381 L10.8601574,6.29598806 L8.6553005,3 L10.8601574,6.29598806 Z" id="Combined-Shape" stroke-linecap="round"></path>
        </g>
    </g>
</svg>