<?xml version="1.0" encoding="UTF-8" standalone="no"?>
<svg width="15px" height="15px" viewBox="0 0 15 15" version="1.1" xmlns="http://www.w3.org/2000/svg" xmlns:xlink="http://www.w3.org/1999/xlink">
    <!-- Generator: Sketch 41 (35326) - http://www.bohemiancoding.com/sketch -->
    <title>map</title>
    <desc>Created with Sketch.</desc>
    <defs></defs>
    <g id="main" stroke="none" stroke-width="1" fill="none" fill-rule="evenodd">
        <g id="EXPLORER---all-domains,-all-locations" transform="translate(-44.000000, -648.000000)" stroke="#4A4948" stroke-width="0.8">
            <g id="Group-13-Copy" transform="translate(1.000000, 17.000000)">
                <g id="PANEL" transform="translate(25.694444, 94.444444)">
                    <g id="all-L,-all-D-stacked" transform="translate(0.000000, 438.888889)">
                        <g id="viz-options" transform="translate(14.583333, 35.416667)">
                            <path d="M10.5253262,75.9777059 C14.1003219,75.9777059 16.9984284,73.0795994 16.9984284,69.5046037 C16.9984284,65.9296081 14.1003219,63.0315015 10.5253262,63.0315015 C6.95033062,63.0315015 4.05222405,65.9296081 4.05222405,69.5046037 C4.05222405,73.0795994 6.95033062,75.9777059 10.5253262,75.9777059 Z M10.5253262,63.1107527 C10.5253262,63.1107527 14.0563027,65.1166598 14.0573989,69.5684989 C14.0584952,74.020338 10.5253262,76.0262451 10.5253262,76.0262451 M10.3584837,63.1107527 C10.3584837,63.1107527 6.82750725,65.1166598 6.82641096,69.5684989 C6.82531468,74.020338 10.3584837,76.0262451 10.3584837,76.0262451 M4.08450767,68.8853577 C4.08450767,68.8853577 6.0904147,72.4163341 10.5422538,72.4174304 C14.994093,72.4185267 17,68.8853577 17,68.8853577" id="map"></path>
                        </g>
                    </g>
                </g>
            </g>
        </g>
    </g>
</svg>