<?xml version="1.0" encoding="UTF-8" standalone="no"?>
<svg width="13px" height="13px" viewBox="0 0 13 13" version="1.1" xmlns="http://www.w3.org/2000/svg" xmlns:xlink="http://www.w3.org/1999/xlink">
    <g id="Page-1" stroke="none" stroke-width="0" fill="none" fill-rule="evenodd" stroke-linecap="round" stroke-linejoin="round">
        <g id="icon-country" fill="#9E978D" stroke-width="0" stroke="none">
            <g id="main">
                <path d="M11.5227273,1.44437879 L11.5227273,0 L9.35606061,0 L9.35606061,1.44437879 L3.64393939,1.44437879 L3.64393939,0 L1.47727273,0 L1.47727273,1.44437879 L0.0326969697,1.44437879 L0.0326969697,13 L12.967303,13 L12.967303,1.44457576 L11.5227273,1.44437879 Z M9.9469697,0.590909091 L10.9318182,0.590909091 L10.9318182,1.90390909 L9.9469697,1.90390909 L9.9469697,0.590909091 Z M2.06818182,0.590909091 L3.0530303,0.590909091 L3.0530303,1.90390909 L2.06818182,1.90390909 L2.06818182,0.590909091 Z M12.3763939,12.4090909 L0.623606061,12.4090909 L0.623606061,3.47986364 L12.3763939,3.47986364 L12.3763939,12.4090909 Z M12.3763939,2.88895455 L0.623606061,2.88895455 L0.623606061,2.03548485 L1.47727273,2.03548485 L1.47727273,2.49501515 L3.64393939,2.49501515 L3.64393939,2.03548485 L9.35606061,2.03548485 L9.35606061,2.49501515 L11.5227273,2.49501515 L11.5227273,2.03548485 L12.3763939,2.03548485 L12.3763939,2.88895455 Z" id="Shape"></path>
                <path d="M4.47416667,4.53030303 L2.47039394,4.53030303 L2.47039394,6.53407576 L4.47416667,6.53407576 L4.47416667,4.53030303 Z M3.88325758,5.94316667 L3.06130303,5.94316667 L3.06130303,5.12121212 L3.88325758,5.12121212 L3.88325758,5.94316667 Z" id="Shape"></path>
                <path d="M7.50178788,4.53030303 L5.49821212,4.53030303 L5.49821212,6.53407576 L7.50178788,6.53407576 L7.50178788,4.53030303 Z M6.91087879,5.94316667 L6.08912121,5.94316667 L6.08912121,5.12121212 L6.91087879,5.12121212 L6.91087879,5.94316667 Z" id="Shape"></path>
                <path d="M10.5296061,4.53030303 L8.52563636,4.53030303 L8.52563636,6.53407576 L10.5296061,6.53407576 L10.5296061,4.53030303 Z M9.93869697,5.94316667 L9.11654545,5.94316667 L9.11654545,5.12121212 L9.93869697,5.12121212 L9.93869697,5.94316667 Z" id="Shape"></path>
                <path d="M4.47416667,6.87680303 L2.47039394,6.87680303 L2.47039394,8.88057576 L4.47416667,8.88057576 L4.47416667,6.87680303 Z M3.88325758,8.28966667 L3.06130303,8.28966667 L3.06130303,7.46771212 L3.88325758,7.46771212 L3.88325758,8.28966667 Z" id="Shape"></path>
                <path d="M7.50178788,6.87680303 L5.49821212,6.87680303 L5.49821212,8.88057576 L7.50178788,8.88057576 L7.50178788,6.87680303 Z M6.91087879,8.28966667 L6.08912121,8.28966667 L6.08912121,7.46771212 L6.91087879,7.46771212 L6.91087879,8.28966667 Z" id="Shape"></path>
                <path d="M10.5296061,6.87680303 L8.52563636,6.87680303 L8.52563636,8.88057576 L10.5296061,8.88057576 L10.5296061,6.87680303 Z M9.93869697,8.28966667 L9.11654545,8.28966667 L9.11654545,7.46771212 L9.93869697,7.46771212 L9.93869697,8.28966667 Z" id="Shape"></path>
                <path d="M4.47416667,9.22330303 L2.47039394,9.22330303 L2.47039394,11.2270758 L4.47416667,11.2270758 L4.47416667,9.22330303 Z M3.88325758,10.6361667 L3.06130303,10.6361667 L3.06130303,9.81421212 L3.88325758,9.81421212 L3.88325758,10.6361667 Z" id="Shape"></path>
                <path d="M7.50178788,9.22330303 L5.49821212,9.22330303 L5.49821212,11.2270758 L7.50178788,11.2270758 L7.50178788,9.22330303 Z M6.91087879,10.6361667 L6.08912121,10.6361667 L6.08912121,9.81421212 L6.91087879,9.81421212 L6.91087879,10.6361667 Z" id="Shape"></path>
            </g>
        </g>
    </g>
</svg>
