<?xml version="1.0" encoding="UTF-8" standalone="no"?>
<svg width="18px" height="17px" viewBox="0 0 18 17" version="1.1" xmlns="http://www.w3.org/2000/svg" xmlns:xlink="http://www.w3.org/1999/xlink">
    <!-- Generator: Sketch 41 (35326) - http://www.bohemiancoding.com/sketch -->
    <title>icon-person</title>
    <desc>Created with Sketch.</desc>
    <defs></defs>
    <g id="Page-1" stroke="none" stroke-width="1" fill="none" fill-rule="evenodd" stroke-linecap="round" stroke-linejoin="round">
        <g id="icon-person" transform="translate(0.000000, 1.000000)" stroke-width="0.6" stroke="#36687F">
            <g id="main">
                <path d="M0.809031,15.570619 L0.809031,13.588559 C0.809031,13.344164 0.8911397,13.235032 1.1553154,13.137427 C2.0424462,12.803113 4.4941044,12.041492 6.0050827,11.657223 C6.7985025,11.440495 6.7985025,10.834887 6.7985025,10.392209 C6.7985025,9.77661 6.703899,9.318562 6.5030897,8.948895 C6.3495822,8.66761 6.1532353,8.163449 6.0854064,7.718465 L6.0488145,7.478681 L5.8649624,7.295769 C5.7641116,7.195859 5.5115381,6.882296 5.3383959,6.132971 C5.2018456,5.549651 5.2625346,5.414388 5.3107288,5.306024 C5.3383959,5.247615 5.362493,5.189206 5.3830202,5.123881 C5.485656,4.709639 5.3589231,3.582193 5.2304051,2.972743 C5.1706086,2.692226 5.2455774,1.896021 5.8551451,1.225855 C6.2282041,0.815456 6.95201,0.311295 8.2844912,0.232136 L9.169837,0.231367 C10.257777,0.295156 11.0842188,0.62947 11.6259576,1.225855 C12.2346328,1.896021 12.3096016,2.692995 12.2506976,2.97428 C12.1186097,3.59987 11.9945542,4.70887 12.0900502,5.093908 L12.1070074,5.153085 C12.1212872,5.194586 12.1391369,5.236087 12.1569866,5.27682 C12.2185681,5.415925 12.2792571,5.548882 12.1444918,6.13374 C11.9695646,6.882296 11.7169911,7.197396 11.6161402,7.298075 L11.4340732,7.480218 L11.3965888,7.718465 C11.3287599,8.16268 11.132413,8.669147 10.9789055,8.950432 C10.7584615,9.353914 10.5326626,9.83963 10.5326626,10.376839 C10.5326626,10.820285 10.5326626,11.42743 11.3519645,11.648769 C12.8165335,12.02151 15.2298148,12.737019 16.2142265,13.091315 C16.5872856,13.228883 16.7265133,13.470204 16.7265133,13.590096 L16.7211584,15.572156" id="Shape"></path>
            </g>
        </g>
    </g>
</svg>