<svg width="18" height="21" viewBox="0 0 18 21" fill="none" xmlns="http://www.w3.org/2000/svg">
<path d="M15.7301 6.82502L16.5001 6.05502C16.8151 5.74002 16.8151 5.28502 16.5001 4.97002C16.1851 4.65502 15.7301 4.65502 15.4151 4.97002L14.6451 5.74002C13.3501 4.65502 11.7751 4.02502 10.0951 3.85002V2.31002H10.8651C11.1801 2.31002 11.4601 2.13502 11.5651 1.82002C11.7751 1.26002 11.3551 0.77002 10.8651 0.77002H7.82012C7.50512 0.77002 7.22512 0.945019 7.12012 1.26002C6.91012 1.82002 7.33012 2.31002 7.82012 2.31002H8.55512V3.85002C4.35512 4.23502 0.995117 7.77002 0.995117 12.145C0.995117 16.73 4.70512 20.475 9.32512 20.475C13.9101 20.475 17.6551 16.765 17.6551 12.145C17.6551 10.185 16.9551 8.29502 15.7301 6.82502ZM9.32512 18.9C5.58012 18.9 2.53512 15.855 2.53512 12.11C2.53512 8.36502 5.58012 5.32002 9.32512 5.32002C13.0701 5.32002 16.1151 8.36502 16.1151 12.11C16.1151 15.89 13.0701 18.9 9.32512 18.9ZM12.8951 8.57502C13.2101 8.89002 13.2101 9.34502 12.8951 9.66002L9.88512 12.67C9.57012 12.985 9.11512 12.985 8.80012 12.67C8.48512 12.355 8.48512 11.9 8.80012 11.585L11.8101 8.57502C12.0901 8.29502 12.5801 8.29502 12.8951 8.57502Z" fill="#F6C646"/>
</svg>
