<?xml version="1.0" encoding="UTF-8" standalone="no"?>
<svg width="16px" height="15px" viewBox="0 0 16 15" version="1.1" xmlns="http://www.w3.org/2000/svg" xmlns:xlink="http://www.w3.org/1999/xlink">
    <!-- Generator: Sketch 43.2 (39069) - http://www.bohemiancoding.com/sketch -->
    <title>Shape</title>
    <desc>Created with Sketch.</desc>
    <defs></defs>
    <g id="Page-1" stroke="none" stroke-width="1" fill="none" fill-rule="evenodd">
        <g id="icon-person" transform="translate(0.000000, 1.000000)" stroke="#4A4948">
            <path d="M0.713850882,13.7387815 L0.713850882,11.989905 C0.713850882,11.7742624 0.786299735,11.6779694 1.01939594,11.5918474 C1.80215841,11.2968644 3.96538624,10.6248459 5.29860238,10.285785 C5.99867868,10.0945544 5.99867868,9.56019441 5.99867868,9.16959618 C5.99867868,8.62642059 5.915205,8.22226059 5.73802032,7.89608382 C5.60257253,7.64789118 5.42932526,7.20304324 5.36947624,6.81041029 L5.33718926,6.59883618 L5.17496682,6.43744324 C5.08598082,6.34928735 4.86312185,6.07261412 4.71034932,5.411445 C4.58986376,4.89675088 4.64341288,4.77740118 4.68593718,4.68178588 C4.71034932,4.63024853 4.73161147,4.57871118 4.74972371,4.52107147 C4.84028471,4.15556382 4.72846156,3.16075853 4.61506332,2.62300853 C4.56230171,2.37549353 4.62845065,1.67295971 5.1663045,1.08163676 C5.49547421,0.71952 6.13412647,0.274672059 7.30984518,0.204825882 L8.09103265,0.204147353 C9.05097971,0.260431765 9.78019306,0.555414706 10.2581979,1.08163676 C10.7952642,1.67295971 10.8614132,2.37617206 10.8094391,2.62436471 C10.6928909,3.17635588 10.5834302,4.15488529 10.6676914,4.49462471 L10.6826536,4.54683971 C10.6952534,4.58345824 10.7110031,4.62007676 10.7267529,4.65601765 C10.7810895,4.77875735 10.8346386,4.89607235 10.7157281,5.41212353 C10.5613805,6.07261412 10.3385216,6.35064353 10.2495355,6.43947794 L10.0888881,6.60019235 L10.0558136,6.81041029 C9.99596462,7.20236471 9.82271735,7.64924735 9.68726956,7.89744 C9.49276015,8.25345353 9.29352582,8.68202647 9.29352582,9.15603441 C9.29352582,9.54731029 9.29352582,10.0830265 10.0164393,10.2783256 C11.308706,10.6072147 13.4380719,11.2385462 14.3066704,11.5511603 C14.6358402,11.6725438 14.7586882,11.8854741 14.7586882,11.9912612 L14.7539633,13.7401376" id="Shape"></path>
        </g>
    </g>
</svg>