<?xml version="1.0" encoding="UTF-8" standalone="no"?>
<svg width="21px" height="18px" viewBox="0 0 21 18" version="1.1" xmlns="http://www.w3.org/2000/svg" xmlns:xlink="http://www.w3.org/1999/xlink">
    <!-- Generator: Sketch 43.2 (39069) - http://www.bohemiancoding.com/sketch -->
    <title>api</title>
    <desc>Created with Sketch.</desc>
    <defs></defs>
    <g id="Symbols" stroke="none" stroke-width="1" fill="none" fill-rule="evenodd">
        <g id="icon-api" stroke-width="0.8" stroke="#363636">
            <g id="api" transform="translate(0.000000, 0.500000)">
                <polyline id="Combined-Shape" points="20.5 10.1499996 20.5 5.5 17.6428571 5.5 17.6428571 2.75 14.9444444 2.75 14.9444444 0 10.5 0 6.05555556 0 6.05555556 2.75 3.35714286 2.75 3.35714286 5.5 0.5 5.5 0.5 10.1499996"></polyline>
                <g id="Group-2" transform="translate(3.000000, 5.000000)">
                    <circle id="Oval-2" transform="translate(2.318939, 4.286184) rotate(-45.000000) translate(-2.318939, -4.286184) " cx="2.31893915" cy="4.28618421" r="1.28618421"></circle>
                    <path d="M7.6,8.5 L7.6,8.8817842e-16" id="Line" stroke-linecap="round"></path>
                    <path d="M3.5,3.5 L7.6,-7.10542736e-15" id="Line" stroke-linecap="round"></path>
                    <path d="M11.5,3.5 L7.6,1.77635684e-14" id="Line" stroke-linecap="round"></path>
                    <circle id="Oval-2-Copy-5" transform="translate(7.568939, 9.856465) rotate(-45.000000) translate(-7.568939, -9.856465) " cx="7.56893915" cy="9.85646518" r="1.28618421"></circle>
                    <circle id="Oval-2-Copy-6" transform="translate(12.678939, 4.286184) rotate(-45.000000) translate(-12.678939, -4.286184) " cx="12.6789388" cy="4.28618421" r="1.28618421"></circle>
                </g>
            </g>
        </g>
    </g>
</svg>