<?xml version="1.0" encoding="UTF-8" standalone="no"?>
<svg width="445px" height="345px" viewBox="0 0 445 345" version="1.1" xmlns="http://www.w3.org/2000/svg" xmlns:xlink="http://www.w3.org/1999/xlink">
    <!-- Generator: Sketch 43.2 (39069) - http://www.bohemiancoding.com/sketch -->
    <title>ia-frame-qrt</title>
    <desc>Created with Sketch.</desc>
    <defs></defs>
    <g id="main" stroke="none" stroke-width="1" fill="none" fill-rule="evenodd">
        <g id="home-desktop-copy-3" transform="translate(-278.000000, -1130.000000)" stroke="#F4F4F1" stroke-width="0.5">
            <g id="ia-frame-qrt" transform="translate(278.000000, 1130.000000)">
                <g id="Group-23" transform="translate(0.549988, 0.500000)">
                    <path d="M222,0.430726826 C226.558259,30.4216193 253.730374,52.8829836 279.547042,62.4970541 C313.639898,75.1931615 336.169262,80.0561273 366.92065,93.8639067 C435.114685,124.483928 443.630616,193.942017 443.630616,193.942017 L443.630616,193.942017" id="Combined-Shape"></path>
                    <path d="M0.18469218,193.942017 C0.18469218,193.942017 8.70062252,124.483928 76.8946579,93.8639067 C107.646045,80.0561273 130.17541,75.1931615 164.268266,62.4970541 C190.084934,52.8829836 217.358,28.5034773 221.815308,0.430726826 L221.815308,0.430726826" id="Combined-Shape-path"></path>
                </g>
                <g id="Group-22" transform="translate(72.000000, 0.000000)">
                    <path d="M150.5,2.76535006 C153.585038,55.6735126 171.975174,95.298526 189.447942,112.259102 C212.522048,134.656825 227.769963,143.235782 248.582557,167.594652 C294.736403,221.612686 300.5,344.146547 300.5,344.146547 L300.5,344.146547" id="Combined-Shape-path"></path>
                    <path d="M0.5,342.226242 C0.5,342.226242 6.263597,219.69238 52.417443,165.674346 C73.230037,141.315477 88.477952,132.73652 111.552058,110.338796 C129.024826,93.3782205 147.483286,50.3693343 150.5,0.845044588 L150.5,0.845044588" id="Combined-Shape-path"></path>
                </g>
            </g>
        </g>
    </g>
</svg>