<?xml version="1.0" encoding="UTF-8" standalone="no"?>
<svg width="602px" height="102px" viewBox="0 0 602 102" version="1.1" xmlns="http://www.w3.org/2000/svg" xmlns:xlink="http://www.w3.org/1999/xlink">
    <!-- Generator: Sketch 43.2 (39069) - http://www.bohemiancoding.com/sketch -->
    <title>ia-frame</title>
    <desc>Created with Sketch.</desc>
    <defs></defs>
    <g id="main" stroke="none" stroke-width="1" fill="none" fill-rule="evenodd">
        <g id="home-desktop-copy-3" transform="translate(-199.000000, -1129.000000)" stroke="#F4F4F1" stroke-width="0.694444444">
            <g id="ia-frame" transform="translate(200.000000, 1129.000000)">
                <path d="M300.5,0.75 C306.670076,16.248265 343.450348,27.855528 378.395883,32.82375 C424.544096,39.384663 455.039925,41.897677 496.665114,49.033064 C588.972806,64.856441 600.5,100.75 600.5,100.75 L600.5,100.75" id="Combined-Shape"></path>
                <path d="M0.25,100.75 C0.25,100.75 11.777194,64.856441 104.084886,49.033064 C145.710075,41.897677 176.205904,39.384663 222.354117,32.82375 C257.299651,27.855528 294.216571,15.257035 300.25,0.75 L300.25,0.75" id="Combined-Shape-path"></path>
                <path d="M300.5,1.75 C303.585038,17.248265 321.975174,28.855528 339.447942,33.82375 C362.522048,40.384663 377.769963,42.897677 398.582557,50.033064 C444.736403,65.856441 450.5,101.75 450.5,101.75 L450.5,101.75" id="Combined-Shape-path"></path>
                <path d="M150.5,100.75 C150.5,100.75 156.263597,64.856441 202.417443,49.033064 C223.230037,41.897677 238.477952,39.384663 261.552058,32.82375 C279.024826,27.855528 297.483286,15.257035 300.5,0.75 L300.5,0.75" id="Combined-Shape-path"></path>
            </g>
        </g>
    </g>
</svg>