<?xml version="1.0" encoding="UTF-8" standalone="no"?>
<svg width="16px" height="22px" viewBox="0 0 16 22" version="1.1" xmlns="http://www.w3.org/2000/svg" xmlns:xlink="http://www.w3.org/1999/xlink">
    <!-- Generator: Sketch 41 (35326) - http://www.bohemiancoding.com/sketch -->
    <title>Group 2</title>
    <desc>Created with Sketch.</desc>
    <defs></defs>
    <g id="Symbols" stroke="none" stroke-width="1" fill="none" fill-rule="evenodd" stroke-linecap="round" stroke-linejoin="round">
        <g id="icon-share-copy" transform="translate(-2.000000, 0.000000)" stroke="#363636">
            <g id="Group-2" transform="translate(2.000000, 1.000000)">
                <path d="M14.65,15.7142857 L14.65,18.9322316 C14.65,19.7191884 14.0526888,20.3571429 13.3261212,20.3571429 L2.67387877,20.3571429 C1.94272071,20.3571429 1.35,19.7155626 1.35,18.9351463 L1.35,7.4934251 C1.35,6.7080781 1.94731123,6.07142857 2.67387877,6.07142857 L13.3261212,6.07142857 C14.0572793,6.07142857 14.65,6.70971896 14.65,7.50214378 L14.65,10.7142857" id="Rectangle" transform="translate(8.000000, 13.214286) scale(1, -1) rotate(90.000000) translate(-8.000000, -13.214286) "></path>
                <g id="Group" transform="translate(4.500000, 0.000000)">
                    <path d="M3.5,12.8571429 L3.5,0" id="Line"></path>
                    <path d="M0.35,3.21428571 L3.5,0" id="Line-Copy"></path>
                    <path d="M3.85,3.21428571 L7,0" id="Line-Copy-2" transform="translate(5.250000, 1.785714) scale(-1, 1) translate(-5.250000, -1.785714) "></path>
                </g>
            </g>
        </g>
    </g>
</svg>