<?xml version="1.0" encoding="UTF-8" standalone="no"?>
<svg width="15px" height="13px" viewBox="0 0 15 13" version="1.1" xmlns="http://www.w3.org/2000/svg" xmlns:xlink="http://www.w3.org/1999/xlink">
    <!-- Generator: Sketch 41 (35326) - http://www.bohemiancoding.com/sketch -->
    <title>icon-twitter</title>
    <desc>Created with Sketch.</desc>
    <defs></defs>
    <g id="main" stroke="none" stroke-width="1" fill="none" fill-rule="evenodd" opacity="0.599999964">
        <g id="EXPLORER---all-domains,-all-locations" transform="translate(-206.000000, -578.000000)" fill="#363636">
            <g id="Group-13">
                <g id="PANEL" transform="translate(26.000000, 94.000000)">
                    <g id="Group-5" transform="translate(0.000000, 475.583333)">
                        <g id="Group-38" transform="translate(106.250000, 6.250000)">
                            <g id="icon-twitter" transform="translate(73.725674, 2.536232)">
                                <path d="M14.8329937,1.4305933 C14.4126,2.04549743 13.9043629,2.56942086 13.3082824,3.00236356 C13.3145569,3.09020701 13.3176942,3.22197218 13.3176942,3.39765908 C13.3176942,4.21334824 13.1984781,5.02746877 12.9600459,5.84002066 C12.7216136,6.65257256 12.3592594,7.43218316 11.8729832,8.17885247 C11.386707,8.92552178 10.8078814,9.58591627 10.1365065,10.1600359 C9.46513153,10.7341556 8.6557169,11.1921965 7.70826257,11.5341585 C6.76080824,11.8761205 5.74747132,12.0471014 4.66825181,12.0471014 C2.96785364,12.0471014 1.4117697,11.5921979 0,10.6823907 C0.21960862,10.7074889 0.464315368,10.7200379 0.734120245,10.7200379 C2.14588995,10.7200379 3.40393361,10.2870952 4.50825125,9.42120981 C3.84942538,9.40866074 3.25961938,9.20630708 2.73883322,8.81414883 C2.21804706,8.42199058 1.86039874,7.92159666 1.66588825,7.31296705 C1.8729478,7.34433971 2.06432103,7.36002604 2.24000793,7.36002604 C2.5098128,7.36002604 2.77648041,7.32551612 3.04001076,7.25649626 C2.33726317,7.11218203 1.75530033,6.76237687 1.29412223,6.20708079 C0.832944124,5.6517847 0.602355072,5.00707654 0.602355072,4.2729563 L0.602355072,4.2353091 C1.02902325,4.47374132 1.48706409,4.60236923 1.97647758,4.62119282 C1.56235847,4.34511341 1.23294554,3.98432782 0.988238791,3.53883605 C0.743532043,3.09334428 0.621178668,2.61020531 0.621178668,2.08941916 C0.621178668,1.53726034 0.759218373,1.02588598 1.03529778,0.555296082 C1.79451615,1.49020135 2.71844099,2.23843929 3.80707229,2.80000991 C4.8957036,3.36158052 6.06119792,3.67373849 7.30355525,3.73648381 C7.253359,3.49805159 7.22826087,3.26589391 7.22826087,3.04001076 C7.22826087,2.19922347 7.52473251,1.48235819 8.11767578,0.889414912 C8.71061906,0.296471637 9.42748434,0 10.2682716,0 C11.1467061,0 11.8871009,0.320001132 12.489456,0.960003397 C13.1733799,0.828238225 13.8165195,0.583531476 14.4188745,0.225883152 C14.1867169,0.947454333 13.7412251,1.50588768 13.0823992,1.9011832 C13.6659307,1.83843788 14.2494622,1.68157458 14.8329937,1.4305933 L14.8329937,1.4305933 Z" id="Shape"></path>
                            </g>
                        </g>
                    </g>
                </g>
            </g>
        </g>
    </g>
</svg>