<?xml version="1.0" encoding="UTF-8" standalone="no"?>
<svg width="14px" height="17px" viewBox="0 0 14 17" version="1.1" xmlns="http://www.w3.org/2000/svg" xmlns:xlink="http://www.w3.org/1999/xlink">
    <g id="Page-1" stroke="none" stroke-width="0" fill="none" fill-rule="evenodd" stroke-linecap="round" stroke-linejoin="round">
        <g id="icon-country" fill="#36687F" stroke-width="0" stroke="none">
            <g id="main">
                <path d="M7.53846154,13.4710403 L7.53846154,15.9282413 L8.70170474,15.9282413 C8.99908886,15.9282413 9.24016628,16.16609 9.24016628,16.4594913 C9.24016628,16.7528926 8.99908886,16.9907413 8.70170474,16.9907413 L5.38461538,16.9907413 C5.08723132,16.9907413 4.84615385,16.7528926 4.84615385,16.4594913 C4.84615385,16.16609 5.08723132,15.9282413 5.38461538,15.9282413 L6.46153846,15.9282413 L6.46153846,13.6150551 C6.28474932,13.6266579 6.1063772,13.6325519 5.92660977,13.6325519 C3.79253517,13.6325519 1.79114603,12.7973729 0.312025151,11.3380617 C0.101742841,11.1305957 0.101742841,10.7942268 0.312025151,10.5867607 C0.522307461,10.3792947 0.86324245,10.3792947 1.07352476,10.5867607 C2.35268548,11.8487898 4.08108868,12.5700519 5.92660977,12.5700519 C9.71710492,12.5700519 12.7899084,9.53840202 12.7899084,5.79867243 C12.7899084,3.97786812 12.0588555,2.27261318 10.7796948,1.01058407 C10.5694125,0.803118043 10.5694125,0.466749149 10.7796948,0.259283119 C10.9899771,0.0518170886 11.3309121,0.0518170886 11.5411944,0.259283119 C13.0203153,1.71859434 13.8668315,3.69317915 13.8668315,5.79867243 C13.8668315,9.58033428 11.1508923,12.7361502 7.53846154,13.4710403 Z M1.62613974,6.32992243 C1.7990798,7.70664952 2.63540183,8.88044528 3.80972604,9.53028766 C3.36727373,8.68248469 3.08668677,7.56294714 3.02378878,6.32992243 L1.62613974,6.32992243 Z M1.62613974,5.26742241 L3.02378878,5.26742241 C3.08668677,4.03439768 3.36727373,2.91486011 3.80972604,2.06705713 C2.63540183,2.71689951 1.7990798,3.89069527 1.62613974,5.26742241 Z M10.2270798,5.26742241 C10.0541397,3.89069527 9.2178177,2.71689951 8.0434935,2.06705713 C8.48594578,2.91486011 8.76653276,4.03439768 8.82943072,5.26742241 L10.2270798,5.26742241 Z M10.2270798,6.32992243 L8.82943072,6.32992243 C8.76653276,7.56294714 8.48594578,8.68248469 8.0434935,9.53028766 C9.2178177,8.88044528 10.0541397,7.70664952 10.2270798,6.32992243 Z M4.10257637,6.32992243 C4.22671679,8.46844062 5.08435803,10.0742285 5.92660977,10.0742285 C6.76886151,10.0742285 7.62650275,8.46844062 7.75064317,6.32992243 L4.10257637,6.32992243 Z M4.10257637,5.26742241 L7.75064317,5.26742241 C7.62650275,3.12890422 6.76886151,1.52311631 5.92660977,1.52311631 C5.08435803,1.52311631 4.22671679,3.12890422 4.10257637,5.26742241 Z M5.92660977,11.1367285 C2.93846297,11.1367285 0.516091375,8.74679936 0.516091375,5.79867243 C0.516091375,2.85054543 2.93846297,0.460616313 5.92660977,0.460616313 C8.91475658,0.460616313 11.3371282,2.85054543 11.3371282,5.79867243 C11.3371282,8.74679936 8.91475658,11.1367285 5.92660977,11.1367285 Z" id="Shape"></path>
            </g>
        </g>
    </g>
</svg>
