<svg width="11" height="11" viewBox="0 0 11 11" fill="none" xmlns="http://www.w3.org/2000/svg">
<path d="M0.6875 11C0.308373 11 0 10.692 0 10.3125V0.6875C0 0.308 0.308373 0 0.6875 0H5.15625C5.34631 0 5.5 0.15369 5.5 0.34375V1.03125C5.5 1.22131 5.34631 1.375 5.15625 1.375H1.375V9.625H9.625V5.84375C9.625 5.65369 9.77869 5.5 9.96875 5.5H10.6562C10.8463 5.5 11 5.65369 11 5.84375V10.3125C11 10.692 10.6916 11 10.3125 11H0.6875Z" fill="black"/>
<path d="M10.6562 0.000862349H7.21866C7.07978 0.000862349 6.95393 0.0840381 6.901 0.212946C6.84775 0.341161 6.87729 0.488948 6.97558 0.587614L8.20825 1.82028L4.77075 5.25778C4.63631 5.39221 4.63631 5.60943 4.77075 5.74386L5.25683 6.22995C5.39195 6.36438 5.60918 6.36438 5.7436 6.22995L9.18071 2.79245L10.4131 4.02511C10.4787 4.0908 10.5667 4.12586 10.6561 4.12586C10.7004 4.12586 10.7451 4.11727 10.7877 4.09908C10.9163 4.04644 10.9998 3.9203 10.9998 3.7821V0.344604C10.9998 0.153855 10.8461 0.000854492 10.6561 0.000854492L10.6562 0.000862349Z" fill="black"/>
</svg>