<svg width="31" height="31" viewBox="0 0 31 31" fill="none" xmlns="http://www.w3.org/2000/svg">
<path d="M15.5 0C6.9404 0 0 6.9404 0 15.5C0 24.0596 6.9404 31 15.5 31C24.0596 31 31 24.0596 31 15.5C31 6.9404 24.0596 0 15.5 0ZM15.5 28.3705C8.39353 28.3705 2.62946 22.6065 2.62946 15.5C2.62946 8.39353 8.39353 2.62946 15.5 2.62946C22.6065 2.62946 28.3705 8.39353 28.3705 15.5C28.3705 22.6065 22.6065 28.3705 15.5 28.3705Z" fill="black"/>
<path d="M13.8393 9.41071C13.8393 9.85116 14.0143 10.2736 14.3257 10.585C14.6372 10.8965 15.0596 11.0714 15.5 11.0714C15.9405 11.0714 16.3629 10.8965 16.6743 10.585C16.9858 10.2736 17.1607 9.85116 17.1607 9.41071C17.1607 8.97027 16.9858 8.54786 16.6743 8.23641C16.3629 7.92497 15.9405 7.75 15.5 7.75C15.0596 7.75 14.6372 7.92497 14.3257 8.23641C14.0143 8.54786 13.8393 8.97027 13.8393 9.41071ZM16.3304 13.2857H14.6697C14.5174 13.2857 14.3929 13.4103 14.3929 13.5625V22.9732C14.3929 23.1254 14.5174 23.25 14.6697 23.25H16.3304C16.4826 23.25 16.6072 23.1254 16.6072 22.9732V13.5625C16.6072 13.4103 16.4826 13.2857 16.3304 13.2857Z" fill="black"/>
</svg>
