<svg width="31" height="41" viewBox="0 0 31 41" fill="none" xmlns="http://www.w3.org/2000/svg">
<path d="M29.7939 19.8197C29.4832 19.3419 29.0054 19.0136 28.4515 18.8963C28.2188 18.8458 27.9858 18.8423 27.7585 18.8688C27.9078 18.312 28.2964 16.8638 28.3115 16.804C28.4825 16.168 28.3949 15.5034 28.0653 14.9326C27.7358 14.3608 27.2033 13.9516 26.5666 13.781C26.2687 13.7007 25.9619 13.6835 25.6608 13.7174C25.6947 13.2373 25.5802 12.7569 25.3197 12.3295C25.0861 11.9466 24.7524 11.6439 24.3593 11.4355C24.2877 10.8962 24.04 10.3865 23.6426 9.98976C22.848 9.19579 21.6632 9.05097 20.7494 9.54675C20.6394 9.18428 20.4524 8.84068 20.167 8.5546C19.7169 8.10456 19.1189 7.85685 18.4815 7.8562H18.4806C17.8442 7.8562 17.2465 8.10423 16.7971 8.55332L8.68704 16.6637L9.13325 14.7363C9.35636 13.9132 9.12142 13.0285 8.52019 12.4272C8.07078 11.9778 7.47208 11.7301 6.83539 11.7301H6.83443C6.1974 11.7301 5.59902 11.9781 5.14996 12.4272C4.80251 12.7747 4.57526 13.2106 4.49023 13.6936L0.418399 24.7778C0.359586 24.9121 0.307484 25.0482 0.265933 25.1879C0.262736 25.1972 0.25954 25.2068 0.256663 25.2167C0.184106 25.4711 0.137442 25.7358 0.116986 26.0062C0.0399539 26.4466 0.000638244 26.8963 0 27.3451C0 27.5276 0.0725557 27.7021 0.201046 27.8322L7.2678 34.899C7.39661 35.0278 7.57145 35.1 7.75396 35.1H7.75492C8.84419 35.0981 9.91309 34.8673 10.896 34.4307L11.106 35.643C11.1239 35.7942 11.1482 35.9428 11.1833 36.0899C11.1856 36.0991 11.1878 36.1078 11.1907 36.117C11.254 36.3651 11.3441 36.6118 11.4592 36.8519C11.6126 37.2716 11.8044 37.6826 12.0291 38.0716C12.1202 38.2301 12.2707 38.3455 12.4465 38.3928L22.0979 40.9767C22.157 40.9927 22.2162 41 22.2763 41C22.3965 41 22.515 40.969 22.6208 40.908C24.095 40.0542 25.2502 38.7322 25.8961 37.168C25.9479 37.1069 25.9891 37.0366 26.0179 36.9596C27.0186 34.2299 27.8257 31.3756 28.4845 28.259C28.4864 28.2545 28.489 28.2507 28.49 28.2475L29.9846 21.857L30.0901 21.4271C30.2099 20.8687 30.1045 20.2982 29.7938 19.8194L29.7939 19.8197ZM22.6708 10.9629C22.7309 11.023 22.7827 11.0885 22.8275 11.1575C22.5315 11.1984 22.2422 11.2882 21.9747 11.4343C21.602 11.6382 21.3089 11.933 21.0967 12.2807C20.8723 12.0701 20.6045 11.9032 20.3011 11.7914L21.1865 10.9057C21.5796 10.5122 22.2454 10.5381 22.6709 10.9629L22.6708 10.9629ZM8.03215 33.7195L1.38058 27.068C1.39337 26.7806 1.42533 26.4942 1.47583 26.2133C1.48031 26.188 1.4835 26.1625 1.48542 26.1363C1.49725 25.9563 1.52666 25.7802 1.573 25.6117C1.57492 25.6063 1.5762 25.6012 1.57812 25.5958C1.60433 25.5063 1.63821 25.4193 1.69222 25.2934L5.80301 14.1061C5.81963 14.0614 5.83145 14.0144 5.83785 13.9674C5.86949 13.7497 5.96761 13.5535 6.122 13.3991C6.31186 13.2092 6.5647 13.1044 6.83446 13.1044H6.83478C7.10456 13.1044 7.35802 13.2089 7.54788 13.3991C7.80167 13.6529 7.90076 14.0278 7.79975 14.4011L6.8063 18.6916C6.74909 18.9403 6.84018 19.1912 7.02589 19.3552C7.381 19.8963 7.67123 20.4786 7.88506 21.0891C7.98447 21.372 8.24976 21.5491 8.53392 21.5491C8.60967 21.5491 8.68639 21.5366 8.7615 21.5101C9.1198 21.3845 9.30807 20.9923 9.18245 20.634C8.97245 20.0366 8.69981 19.4629 8.3741 18.9207L17.7677 9.52543C17.9576 9.33557 18.2108 9.23072 18.4792 9.23072H18.4802C18.7497 9.23072 19.0031 9.33556 19.1936 9.52671C19.5865 9.91954 19.5865 10.5579 19.1955 10.9503L17.9614 12.1844C17.8525 12.2746 17.754 12.3756 17.6635 12.4826L15.7234 14.4228L11.6966 18.4492C11.4281 18.7177 11.4281 19.1531 11.6966 19.4212C11.9651 19.6897 12.4001 19.6897 12.6686 19.4212L16.6241 15.4664L15.4955 19.6801L15.2289 19.9464C15.2286 19.9467 15.228 19.9467 15.228 19.9467L13.9849 21.1907C13.7168 21.4592 13.7168 21.8942 13.9849 22.1627C14.1192 22.297 14.2953 22.3638 14.4711 22.3638C14.5874 22.3638 14.6983 22.3235 14.8032 22.2644L14.2106 24.475L13.6324 22.5821C13.4137 21.7578 12.7687 21.1089 11.9476 20.8884C10.6771 20.5473 9.36874 21.3049 9.02834 22.5742C8.90145 23.0485 8.92351 23.5398 9.09067 24.0007L10.6514 33.0122C9.83923 33.4294 8.95001 33.678 8.03167 33.7193L8.03215 33.7195ZM28.7505 21.1191L27.2978 27.3098C27.277 27.3545 27.261 27.4018 27.2511 27.4523C26.6032 30.6269 25.8032 33.5123 24.8079 36.265C24.7631 36.3203 24.7264 36.3842 24.7008 36.4539C24.2191 37.7356 23.327 38.8346 22.1699 39.5739L13.0856 37.1412C12.9523 36.8851 12.8363 36.6202 12.7397 36.3507C12.7311 36.3274 12.7209 36.3031 12.71 36.281C12.6266 36.111 12.5623 35.9374 12.5195 35.7645C12.5185 35.76 12.5173 35.7562 12.5163 35.752C12.4962 35.6645 12.4818 35.5721 12.4664 35.4458L12.0934 33.2918C12.0931 33.2874 12.0922 33.2822 12.0912 33.2778L10.4339 23.7025C10.4256 23.6558 10.4128 23.6095 10.3949 23.5644C10.3134 23.3605 10.3 23.1418 10.3565 22.9315C10.501 22.3945 11.0559 22.0742 11.5919 22.2171C11.9384 22.3101 12.2114 22.585 12.3114 22.96L13.5973 27.1715C13.6868 27.4652 13.9416 27.6647 14.2663 27.6586C14.5729 27.6531 14.8391 27.4454 14.9184 27.1494L18.506 13.7536C18.5379 13.6351 18.5926 13.5267 18.6616 13.4295L18.8815 13.2096C18.9125 13.1866 18.9416 13.162 18.9755 13.1428C19.2092 13.0083 19.4815 12.9728 19.7398 13.0421C20.2767 13.1857 20.5961 13.7386 20.4541 14.2744L19.1826 19.0181V19.019L17.7088 24.5186C17.6113 24.8846 17.829 25.2615 18.195 25.3599C18.5619 25.4593 18.9387 25.2407 19.0372 24.8737L21.7819 14.6307C21.7819 14.6298 21.7819 14.6288 21.7828 14.6275L22.1546 13.239C22.2233 12.9846 22.3933 12.7721 22.6343 12.6407C22.8859 12.5026 23.1819 12.4694 23.4692 12.5464C23.7566 12.6234 23.9973 12.8008 24.1468 13.046C24.2894 13.2806 24.33 13.5497 24.2622 13.8035L21.5185 24.0449C21.5185 24.0458 21.5185 24.0468 21.5176 24.0478V24.0497L21.0621 25.7472C20.9636 26.1142 21.1813 26.491 21.5482 26.5895C21.6083 26.6055 21.6684 26.6128 21.7266 26.6128C22.0299 26.6128 22.3087 26.4108 22.3905 26.1036L22.845 24.4051C22.846 24.4041 22.846 24.4032 22.846 24.4022V24.4012L25.2854 15.2981C25.5519 15.1012 25.8911 15.0242 26.2113 15.1092C26.4932 15.1849 26.7288 15.3658 26.8742 15.6193C27.0209 15.8728 27.0593 16.1668 26.9842 16.4475C26.9644 16.5194 26.373 18.729 26.373 18.729L24.6735 25.0712C24.6527 25.1124 24.6368 25.1566 24.6246 25.202L24.1726 26.8893C24.0742 27.2562 24.2919 27.6331 24.6588 27.7315C24.7179 27.7475 24.778 27.7549 24.8372 27.7549C25.1405 27.7549 25.4192 27.5528 25.5001 27.2457L25.7855 26.1826C25.7961 26.1564 25.8127 26.1343 25.8204 26.1065L27.23 20.846C27.2552 20.8057 27.2776 20.7626 27.2946 20.7169C27.4253 20.3672 27.7996 20.1633 28.1643 20.2416C28.3612 20.2831 28.5312 20.3998 28.6412 20.5695C28.7514 20.7396 28.7882 20.9419 28.7505 21.1196L28.7505 21.1191Z" fill="black"/>
<path d="M25.363 8.53746C25.5394 8.53746 25.7149 8.47065 25.8492 8.33641L28.7204 5.46513C28.9889 5.19664 28.9889 4.76129 28.7204 4.49311C28.452 4.22463 28.0169 4.22463 27.7484 4.49311L24.8771 7.3644C24.6087 7.63288 24.6087 8.06823 24.8771 8.33641C25.0111 8.47033 25.1875 8.53746 25.363 8.53746H25.363Z" fill="black"/>
<path d="M19.573 5.27376C19.6331 5.28974 19.6932 5.29774 19.7514 5.29774C20.0547 5.29774 20.3334 5.09509 20.4152 4.7876L21.4649 0.865998C21.5624 0.499376 21.3447 0.122215 20.9778 0.0247434C20.6124 -0.0737016 20.235 0.144283 20.1365 0.510905L19.0869 4.43251C18.9891 4.79849 19.207 5.17565 19.573 5.27376L19.573 5.27376Z" fill="black"/>
<path d="M12.6046 4.78764C12.6868 5.09481 12.9648 5.29714 13.2682 5.29714C13.327 5.29714 13.3868 5.28947 13.4465 5.27317C13.8131 5.17504 14.0308 4.79787 13.9327 4.43126L12.8824 0.509656C12.7849 0.143672 12.4068 -0.0746325 12.0405 0.0234935C11.6738 0.121619 11.4562 0.498789 11.5543 0.865403L12.6046 4.78764Z" fill="black"/>
</svg>
