<svg width="290" height="40" viewBox="0 0 290 40" fill="none" xmlns="http://www.w3.org/2000/svg">
<path fill-rule="evenodd" clip-rule="evenodd" d="M0.231937 0.386562H12.1896C14.8526 0.386562 17.4296 1.56342 19.9208 3.91716C21.5702 6.04756 22.3948 8.19511 22.3948 10.3599V11.2876C22.3948 14.3801 20.6339 17.3523 17.1118 20.2043C15.1189 21.3726 12.7737 21.9567 10.0764 21.9567H4.22641V24.1988C4.22641 32.875 4.61297 37.2131 5.3861 37.2131C6.29667 38.2954 7.00107 38.8366 7.49931 38.8366V39.0943H0.231937L0 38.8366V0.6185L0.231937 0.386562ZM4.22641 2.37092V20.5651H8.32397C12.7394 20.5651 15.6686 18.7612 17.1118 15.1532C17.507 13.6929 17.7046 12.4817 17.7046 11.5196V9.99908C17.7046 7.38762 16.2184 5.16276 13.2462 3.32444C11.803 2.68875 10.3599 2.37092 8.9167 2.37092H4.22641ZM46.6287 0C46.9036 0 48.5615 4.06316 51.6025 12.1896L61.3181 36.0018C62.7956 37.823 63.8608 38.7335 64.5137 38.7335V38.9655H54.0765V38.8366L55.3908 37.3161V36.0018C55.3908 35.0054 54.1281 31.2171 51.6025 24.6369C51.4651 24.0012 51.3019 23.6834 51.1129 23.6834H38.7944C38.5367 23.6834 37.2739 26.8446 35.0061 33.167C34.611 33.7684 34.1814 35.0655 33.7176 37.0584C33.7863 37.6941 34.0612 38.2868 34.5422 38.8366L34.3103 39.0943H26.8368V38.8366C27.9191 38.5961 29.1046 37.8487 30.3931 36.5946C31.4411 35.2373 33.4942 30.6244 36.5524 22.7556C41.1396 12.1036 44.1376 4.51851 45.5464 0H46.6287ZM39.7479 21.5702V21.6733H50.2882V21.5702C50.2195 21.0548 48.5616 16.5105 45.3144 7.93741C45.1598 7.93741 43.3043 12.4816 39.7479 21.5702ZM98.1282 0.747354H103.102L103.334 0.979291C101.788 2.19912 101.015 3.65945 101.015 5.36033C100.705 6.30526 100.551 7.34468 100.551 8.4786V39.7644L100.344 39.9963H100.113L73.3109 9.27749H73.0789V32.497C73.5256 35.7957 74.0239 37.445 74.5736 37.445C74.5736 37.6512 75.1148 38.1494 76.1972 38.9397L76.0941 39.0686H70.6565L70.4245 38.8366V1.08237L70.6565 0.850437H72.0481L97.6643 30.8734H97.8962V0.979291L98.1282 0.747354ZM109.348 0.489646H140.943L141.175 0.721583V6.77772H140.943C140.393 5.24865 139.422 4.12333 138.031 3.40175C135.9 2.93787 133.916 2.70594 132.078 2.70594H126.253V26.0285C126.253 33.3303 126.64 36.9811 127.413 36.9811C127.413 37.3247 128.118 37.9432 129.526 38.8366V38.9655H122.182L121.95 38.7078V2.80902H117.388C113.334 2.80902 110.885 3.47046 110.044 4.79337C109.58 5.96165 109.348 6.70041 109.348 7.00966V7.2416H109.116V0.721583L109.348 0.489646ZM175.769 0.566958L175.872 0.670041V0.901979C174.102 1.74383 173.217 4.8363 173.217 10.1795V19.7662C173.217 31.1054 173.561 36.775 174.248 36.775C174.317 37.2045 175.013 37.9003 176.336 38.8624L176.104 39.0943H169.403L169.171 38.8624V20.127H150.075C150.075 30.2979 150.419 35.9245 151.106 37.0069C151.673 37.6598 152.369 38.2783 153.193 38.8624L152.961 39.0943H146.364L146.132 38.8624V0.901979L146.364 0.670041H152.601L152.833 0.901979C151.372 2.01872 150.642 3.17839 150.642 4.38104C150.264 4.38104 150.075 8.12636 150.075 15.6171V17.9107H169.042V0.901979L169.274 0.670041H175.537L175.64 0.566958H175.769ZM181.963 0.64427H200.956L201.188 0.876208V6.0046L200.956 6.23654C199.839 4.62156 199.023 3.77113 198.508 3.68523C197.099 2.98082 195.278 2.62862 193.044 2.62862H185.932V18.22H198.869L199.1 18.4777V22.6525L198.869 22.8845C198.869 22.266 197.898 21.5702 195.956 20.797C194.393 20.4019 192.022 20.2043 188.844 20.2043H185.932V22.3175C185.932 30.6158 186.275 34.7648 186.962 34.7648C188.045 36.2424 190.416 36.9811 194.075 36.9811H195.596C198.774 36.9811 201.222 35.7785 202.94 33.3732L204.925 31.2858H205.028L205.389 31.6208V31.7496C205.389 32.0761 204.031 34.4813 201.317 38.9655H181.963L181.731 38.7078V0.876208L181.963 0.64427ZM228.695 0.64427H230.731C234.991 0.64427 238.977 2.15614 242.688 5.17993C246.623 9.1143 248.59 13.6671 248.59 18.8385V20.7713C248.59 25.7537 246.468 30.3065 242.224 34.4298C238.427 37.4536 234.528 38.9655 230.524 38.9655H228.463C224.219 38.9655 220.01 37.067 215.835 33.2701C212.279 29.1468 210.501 24.9805 210.501 20.7713V18.9416C210.501 13.8217 212.889 9.08853 217.665 4.74183C221.359 2.01011 225.035 0.64427 228.695 0.64427ZM215.268 17.9365V19.3023C215.268 23.7693 216.866 28.0902 220.061 32.2651C222.913 35.203 225.868 36.6719 228.927 36.6719H230.292C235.137 36.6719 239.08 34.4041 242.121 29.8684C243.479 27.3428 244.157 24.7658 244.157 22.1371V20.6682C244.157 13.7616 241.692 8.48721 236.761 4.84491C234.424 3.55637 232.191 2.9121 230.061 2.9121H228.927C225.25 2.9121 221.986 4.38961 219.134 7.34468C216.557 10.5403 215.268 14.0708 215.268 17.9365ZM284.369 0.747354H289.343L289.575 0.979291C288.028 2.19912 287.255 3.65945 287.255 5.36033C286.946 6.30526 286.791 7.34468 286.791 8.4786V39.7644L286.585 39.9963H286.353L259.552 9.27749H259.32V32.497C259.766 35.7957 260.265 37.445 260.814 37.445C260.814 37.6512 261.356 38.1494 262.438 38.9397L262.335 39.0686H256.897L256.665 38.8366V1.08237L256.897 0.850437H258.289L283.905 30.8734H284.137V0.979291L284.369 0.747354Z" fill="#353535"/>
<path d="M229.555 22.3507C230.564 22.2269 231.267 21.1917 231.125 20.0386C230.984 18.8855 230.051 18.0512 229.042 18.1751C228.033 18.299 227.33 19.3342 227.471 20.4872C227.613 21.6403 228.546 22.4746 229.555 22.3507Z" fill="#363636"/>
</svg>
