<?xml version="1.0" encoding="UTF-8" standalone="no"?>
<svg width="18px" height="15px" viewBox="0 0 18 15" version="1.1" xmlns="http://www.w3.org/2000/svg" xmlns:xlink="http://www.w3.org/1999/xlink">
    <!-- Generator: Sketch 40.1 (33804) - http://www.bohemiancoding.com/sketch -->
    <title>Shape</title>
    <desc>Created with Sketch.</desc>
    <defs></defs>
    <g id="main" stroke="none" stroke-width="1" fill="none" fill-rule="evenodd">
        <g id="home-desktop-copy-4" transform="translate(-36.000000, -229.000000)" stroke="#82817F">
            <g id="Group">
                <path d="M47.3237485,231.272723 L47.3237485,229.669201 L42.6316739,229.669201 L42.6316739,231.272723 L36.9344242,231.272723 L36.9344242,243.45793 L53.0209982,243.45793 L53.0209982,231.272723 L47.3237485,231.272723 L47.3237485,231.272723 Z M46.6536317,237.492403 L53.0657344,237.492403 L53.0657344,236.913405 L46.6536317,236.913405 L46.6536317,236.220728 L46.6536317,236.220728 L43.3024193,236.220728 L43.3024193,236.913405 L36.9800679,236.913405 L36.9800679,237.492403 L43.3024193,237.492403 L43.3024193,238.509926 L46.6536317,238.509926 L46.6536317,237.492403 Z M43.3017907,230.310971 L46.6530031,230.310971 L46.6530031,231.468967 L43.3017907,231.468967 L43.3017907,230.310971 Z" id="Shape"></path>
            </g>
        </g>
    </g>
</svg>