<?xml version="1.0" encoding="UTF-8" standalone="no"?>
<svg width="18px" height="18px" viewBox="0 0 18 18" version="1.1" xmlns="http://www.w3.org/2000/svg" xmlns:xlink="http://www.w3.org/1999/xlink">
    <!-- Generator: Sketch 40.1 (33804) - http://www.bohemiancoding.com/sketch -->
    <title>Shape</title>
    <desc>Created with Sketch.</desc>
    <defs></defs>
    <g id="main" stroke="none" stroke-width="1" fill="none" fill-rule="evenodd">
        <g id="home-desktop-copy-4" transform="translate(-36.000000, -110.000000)" stroke="#82817F">
            <g id="Group">
                <path d="M52.7193734,126.570619 L36.809031,126.570619 L36.809031,124.588559 C36.809031,124.344164 36.8911397,124.235032 37.1553154,124.137427 C38.0424462,123.803113 40.4941044,123.041492 42.0050827,122.657223 C42.7985025,122.440495 42.7985025,121.834887 42.7985025,121.392209 C42.7985025,120.77661 42.703899,120.318562 42.5030897,119.948895 C42.3495822,119.66761 42.1532353,119.163449 42.0854064,118.718465 L42.0488145,118.478681 L41.8649624,118.295769 C41.7641116,118.195859 41.5115381,117.882296 41.3383959,117.132971 C41.2018456,116.549651 41.2625346,116.414388 41.3107288,116.306024 C41.3383959,116.247615 41.362493,116.189206 41.3830202,116.123881 L41.3874826,116.106973 L41.391945,116.090065 C41.485656,115.709639 41.3589231,114.582193 41.2304051,113.972743 C41.1706086,113.692226 41.2455774,112.896021 41.8551451,112.225855 C42.2282041,111.815456 42.95201,111.311295 44.2844912,111.232136 L45.169837,111.231367 C46.257777,111.295156 47.0842188,111.62947 47.6259576,112.225855 C48.2346328,112.896021 48.3096016,113.692995 48.2506976,113.97428 C48.1186097,114.59987 47.9945542,115.70887 48.0900502,116.093908 L48.09719,116.123881 L48.1070074,116.153085 C48.1212872,116.194586 48.1391369,116.236087 48.1569866,116.27682 L48.1650189,116.296802 L48.1659114,116.298339 C48.2185681,116.415925 48.2792571,116.548882 48.1444918,117.13374 C47.9695646,117.882296 47.7169911,118.197396 47.6161402,118.298075 L47.4340732,118.480218 L47.3965888,118.718465 C47.3287599,119.16268 47.132413,119.669147 46.9789055,119.950432 C46.7584615,120.353914 46.5326626,120.83963 46.5326626,121.376839 C46.5326626,121.820285 46.5326626,122.42743 47.3519645,122.648769 C48.8165335,123.02151 51.2298148,123.737019 52.2142265,124.091315 C52.5872856,124.228883 52.7265133,124.470204 52.7265133,124.590096 L52.7211584,126.572156 L52.7193734,126.570619 Z" id="Shape"></path>
            </g>
        </g>
    </g>
</svg>