<?xml version="1.0" encoding="UTF-8" standalone="no"?>
<svg width="17px" height="19px" viewBox="0 0 17 19" version="1.1" xmlns="http://www.w3.org/2000/svg" xmlns:xlink="http://www.w3.org/1999/xlink">
    <!-- Generator: Sketch 40.1 (33804) - http://www.bohemiancoding.com/sketch -->
    <title>Shape</title>
    <desc>Created with Sketch.</desc>
    <defs></defs>
    <g id="main" stroke="none" stroke-width="1" fill="none" fill-rule="evenodd">
        <g id="home-desktop-copy-4" transform="translate(-37.000000, -168.000000)" stroke="#82817F">
            <g id="Group">
                <path d="M47.8095922,178.267288 L45.7477063,177.149565 L45.7477063,173.13797 C46.9158936,172.973363 47.8095922,172.020247 47.8095922,170.869233 C47.8095922,169.586904 46.7444993,168.567822 45.4042734,168.567822 C44.0640476,168.567822 42.9989546,169.586904 42.9989546,170.869233 C42.9989546,172.020247 43.8926533,172.973363 45.0608405,173.13797 L45.0608405,176.755002 L42.9989546,175.637279 L37.5008069,177.7747 L37.5008069,185.830565 L42.9989546,183.693144 L47.8102366,186.323769 L53.3083843,183.693144 L53.3083843,175.637279 L47.8102366,178.267904 L47.8095922,178.267288 Z M47.8095922,185.599993 L42.9983103,182.969368 L42.9983103,176.393114 L45.0601962,177.510837 L45.0601962,180.404092 L45.7477063,180.404092 L45.7477063,177.872108 L47.8095922,178.989831 L47.8095922,185.59876 L47.8095922,185.599993 Z" id="Shape"></path>
            </g>
        </g>
    </g>
</svg>