<?xml version="1.0" encoding="UTF-8" standalone="no"?>
<svg width="390px" height="143px" viewBox="0 0 390 143" version="1.1" xmlns="http://www.w3.org/2000/svg" xmlns:xlink="http://www.w3.org/1999/xlink">
    <!-- Generator: Sketch 40.1 (33804) - http://www.bohemiancoding.com/sketch -->
    <title>sparkline</title>
    <desc>Created with Sketch.</desc>
    <defs></defs>
    <g id="main" stroke="none" stroke-width="1" fill="none" fill-rule="evenodd">
        <g id="person-profile" transform="translate(-525.000000, -396.000000)">
            <g id="HERO">
                <g id="box" transform="translate(411.000000, 175.500000)">
                    <g id="sparkline" transform="translate(113.000000, 221.000000)">
                        <text id="2007" font-family="Amiko-Regular, Amiko" font-size="11" font-weight="normal" letter-spacing="1.19565213" fill="#353535">
                            <tspan x="0.468695745" y="141">2007</tspan>
                        </text>
                        <text id="2016" font-family="Amiko-Regular, Amiko" font-size="11" font-weight="normal" letter-spacing="1.19565213" fill="#353535">
                            <tspan x="360.468696" y="141">2016</tspan>
                        </text>
                        <polyline id="Clip-37" stroke="#4A4948" stroke-linecap="round" stroke-linejoin="round" stroke-dasharray="1,3" points="363.762673 89.3067132 353.421845 88.1520985 337.215152 98.0734107 320.724131 98.5193124 304.23311 104.538985 288.026416 92.6111152 271.535395 103.089805 255.328701 114.348821 238.83768 117.247181 222.346658 118.835514 205.873941 119.685291 189.648944 120.257017 173.999754 120.368495 158.029736 120.257017 141.4109 120.034066 125.311598 120.257017 109.184087 121.148821 92.8446084 120.591443 76.0220334 121.260295 57.8011034 122.152098 43.5436811 121.483247 25.8945252 121.483248"></polyline>
                        <g id="Group-52" transform="translate(23.000000, 0.000000)">
                            <ellipse id="Oval-3" fill="#4A4948" cx="5" cy="123.666667" rx="5" ry="5"></ellipse>
                            <circle id="Oval-3" fill="#4A4948" cx="343" cy="7.66666667" r="5"></circle>
                            <polyline id="Clip-37-Copy" stroke="#363636" stroke-linecap="round" stroke-linejoin="round" points="340.762673 6.79957213 329.040264 0.485566162 315.243186 38.7135083 298.25485 51.9044627 282.18585 68.8021298 266.372221 38.7135079 248.406434 59.8776565 236.814352 94.4740094 216.013059 104.70404 199.508455 111.651464 183.022171 115.368421 166.783811 117.869174 151.121732 118.35678 135.138562 117.869174 118.506038 116.893975 102.393478 117.869174 86.2526837 121.769954 69.8997481 119.331965 53.0633181 122.257547 34.8273814 126.158328 20.5582168 123.232745 2.8945252 123.232749"></polyline>
                        </g>
                    </g>
                </g>
            </g>
        </g>
    </g>
</svg>