<?xml version="1.0" encoding="UTF-8" standalone="no"?>
<svg width="16px" height="16px" viewBox="0 0 16 16" version="1.1" xmlns="http://www.w3.org/2000/svg" xmlns:xlink="http://www.w3.org/1999/xlink">
    <!-- Generator: Sketch 41 (35326) - http://www.bohemiancoding.com/sketch -->
    <title>icon-info</title>
    <desc>Created with Sketch.</desc>
    <defs>
        <rect id="path-1" x="0" y="0" width="15.2777778" height="15.278064"></rect>
        <mask id="mask-2" maskContentUnits="userSpaceOnUse" maskUnits="objectBoundingBox" x="0" y="0" width="15.2777778" height="15.278064" fill="white">
            <use xlink:href="#path-1"></use>
        </mask>
    </defs>
    <g id="main" stroke="none" stroke-width="1" fill="none" fill-rule="evenodd">
        <g id="era-profile" transform="translate(-645.000000, -929.000000)">
            <g id="icon-info" transform="translate(645.666667, 928.994692)">
                <g id="Group-2" transform="translate(4.861111, 2.777830)" fill="#F4F4F1">
                    <path d="M2.03825759,7.7501452 L2.03825759,9.13767119 L3.42575759,9.13767119 L3.42575759,7.7501452 L2.03825759,7.7501452 Z M1.06325759,3.00005621 C1.06325759,2.70838262 1.09659059,2.43754692 1.16325759,2.18754098 C1.22992459,1.93753505 1.33617353,1.72086649 1.48200759,1.53752881 C1.62784165,1.35419112 1.80908984,1.20835651 2.02575759,1.10002061 C2.24242534,0.991684704 2.50075609,0.937517564 2.80075759,0.937517564 C3.25075984,0.937517564 3.60700628,1.06668536 3.86950759,1.32502482 C4.1320089,1.58336429 4.27992409,1.94170075 4.31325759,2.40004496 C4.32992434,2.70838562 4.29242471,2.97088791 4.20075759,3.18755972 C4.10909046,3.40423153 3.98617503,3.60214992 3.83200759,3.78132084 C3.67784015,3.96049176 3.51117515,4.13132659 3.33200759,4.29383044 C3.15284003,4.4563343 2.9820084,4.63341918 2.81950759,4.8250904 C2.65700678,5.01676161 2.51950815,5.23551352 2.40700759,5.48135269 C2.29450703,5.72719186 2.22992434,6.02511113 2.21325759,6.37511944 L2.21325759,6.96263044 L3.27575759,6.96263044 L3.27575759,6.47512131 C3.27575759,6.2584495 3.30700728,6.06469781 3.36950759,5.89386042 C3.4320079,5.72302303 3.5153404,5.56468832 3.61950759,5.41885152 C3.72367478,5.27301473 3.84034028,5.13551353 3.96950759,5.00634379 C4.0986749,4.87717406 4.22992359,4.75008962 4.36325759,4.62508665 C4.49659159,4.49175015 4.62784028,4.35424895 4.75700759,4.21257892 C4.8861749,4.07090889 5.00075709,3.91674088 5.10075759,3.75007026 C5.20075809,3.58339964 5.28200728,3.39798135 5.34450759,3.19380984 C5.4070079,2.98963832 5.43825759,2.7583863 5.43825759,2.50004684 C5.43825759,2.10003734 5.3736749,1.74586758 5.24450759,1.43752693 C5.11534028,1.12918628 4.93409209,0.868767339 4.70075759,0.656262295 C4.46742309,0.443757251 4.19034253,0.281255832 3.86950759,0.168753162 C3.54867265,0.0562504914 3.19242621,0 2.80075759,0 C2.36742209,0 1.97575934,0.0750006551 1.62575759,0.225004215 C1.27575584,0.375007776 0.979925464,0.58542628 0.738257589,0.856266042 C0.496589714,1.1271058 0.311174902,1.44585859 0.182007589,1.81253396 C0.0528402766,2.17920933 -0.00757578587,2.57504612 0.000757589128,3.00005621 L1.06325759,3.00005621 Z" id="?"></path>
                </g>
                <use id="Rectangle" stroke="#F4F4F1" mask="url(#mask-2)" stroke-width="1.38888889" xlink:href="#path-1"></use>
            </g>
        </g>
    </g>
</svg>