<?xml version="1.0" encoding="UTF-8" standalone="no"?>
<svg width="16px" height="16px" viewBox="0 0 16 16" version="1.1" xmlns="http://www.w3.org/2000/svg" xmlns:xlink="http://www.w3.org/1999/xlink">
    <!-- Generator: Sketch 43.2 (39069) - http://www.bohemiancoding.com/sketch -->
    <title>icon-help</title>
    <desc>Created with Sketch.</desc>
    <defs>
        <rect id="path-1" x="0" y="0" width="15.2777778" height="15.278064"></rect>
    </defs>
    <g id="Page-1" stroke="none" stroke-width="1" fill="none" fill-rule="evenodd">
        <g id="icon-help" transform="translate(0.000000, -1.000000)">
            <g id="Group-2" transform="translate(0.527778, 0.772522)">
                <g id="path-1-Clipped" transform="translate(0.138889, 0.222170)">
                    <mask id="mask-2" fill="white">
                        <use xlink:href="#path-1"></use>
                    </mask>
                    <g id="path-1"></g>
                    <rect id="path-1" stroke="#AFAAA4" stroke-width="1.38888889" fill="#36687F" mask="url(#mask-2)" x="0" y="0" width="15.2777778" height="15.278064"></rect>
                </g>
                <path d="M7.03825759,10.7501452 L7.03825759,12.1376712 L8.42575759,12.1376712 L8.42575759,10.7501452 L7.03825759,10.7501452 Z M6.06325759,6.00005621 C6.06325759,5.70838262 6.09659059,5.43754692 6.16325759,5.18754098 C6.22992459,4.93753505 6.33617353,4.72086649 6.48200759,4.53752881 C6.62784165,4.35419112 6.80908984,4.20835651 7.02575759,4.10002061 C7.24242534,3.9916847 7.50075609,3.93751756 7.80075759,3.93751756 C8.25075984,3.93751756 8.60700628,4.06668536 8.86950759,4.32502482 C9.1320089,4.58336429 9.27992409,4.94170075 9.31325759,5.40004496 C9.32992434,5.70838562 9.29242471,5.97088791 9.20075759,6.18755972 C9.10909046,6.40423153 8.98617503,6.60214992 8.83200759,6.78132084 C8.67784015,6.96049176 8.51117515,7.13132659 8.33200759,7.29383044 C8.15284003,7.4563343 7.9820084,7.63341918 7.81950759,7.8250904 C7.65700678,8.01676161 7.51950815,8.23551352 7.40700759,8.48135269 C7.29450703,8.72719186 7.22992434,9.02511113 7.21325759,9.37511944 L7.21325759,9.96263044 L8.27575759,9.96263044 L8.27575759,9.47512131 C8.27575759,9.2584495 8.30700728,9.06469781 8.36950759,8.89386042 C8.4320079,8.72302303 8.5153404,8.56468832 8.61950759,8.41885152 C8.72367478,8.27301473 8.84034028,8.13551353 8.96950759,8.00634379 C9.0986749,7.87717406 9.22992359,7.75008962 9.36325759,7.62508665 C9.49659159,7.49175015 9.62784028,7.35424895 9.75700759,7.21257892 C9.8861749,7.07090889 10.0007571,6.91674088 10.1007576,6.75007026 C10.2007581,6.58339964 10.2820073,6.39798135 10.3445076,6.19380984 C10.4070079,5.98963832 10.4382576,5.7583863 10.4382576,5.50004684 C10.4382576,5.10003734 10.3736749,4.74586758 10.2445076,4.43752693 C10.1153403,4.12918628 9.93409209,3.86876734 9.70075759,3.65626229 C9.46742309,3.44375725 9.19034253,3.28125583 8.86950759,3.16875316 C8.54867265,3.05625049 8.19242621,3 7.80075759,3 C7.36742209,3 6.97575934,3.07500066 6.62575759,3.22500422 C6.27575584,3.37500778 5.97992546,3.58542628 5.73825759,3.85626604 C5.49658971,4.1271058 5.3111749,4.44585859 5.18200759,4.81253396 C5.05284028,5.17920933 4.99242421,5.57504612 5.00075759,6.00005621 L6.06325759,6.00005621 Z" id="?" fill="#F4F4F1" fill-rule="nonzero"></path>
            </g>
            <g id="Rectangle" transform="translate(0.666667, 0.994692)"></g>
        </g>
    </g>
</svg>