<?xml version="1.0" encoding="utf-8"?>
<!-- Generator: Adobe Illustrator 19.0.0, SVG Export Plug-In . SVG Version: 6.00 Build 0)  -->
<svg version="1.1" id="Layer_1" xmlns="http://www.w3.org/2000/svg" xmlns:xlink="http://www.w3.org/1999/xlink" x="0px" y="0px"
	 viewBox="-52.6 161.2 288.6 288.6" style="enable-background:new -52.6 161.2 288.6 288.6;" xml:space="preserve">
<style type="text/css">
	.st0{stroke:#000000;stroke-miterlimit:10;}
	.st1{fill:none;stroke:#000000;stroke-miterlimit:10;}
</style>
<rect x="-52.6" y="161.2" class="st0" width="41.2" height="41.2"/>
<rect x="-11.3" y="161.2" class="st0" width="41.2" height="41.2"/>
<rect x="29.9" y="161.2" class="st0" width="41.2" height="41.2"/>
<rect x="71.1" y="161.2" class="st0" width="41.2" height="41.2"/>
<rect x="112.3" y="161.2" class="st0" width="41.2" height="41.2"/>
<rect x="153.6" y="161.2" class="st0" width="41.2" height="41.2"/>
<rect x="194.8" y="161.2" class="st0" width="41.2" height="41.2"/>
<rect x="-52.6" y="202.5" class="st0" width="41.2" height="41.2"/>
<rect x="-52.6" y="243.7" class="st0" width="41.2" height="41.2"/>
<line class="st1" x1="-11.3" y1="284.9" x2="-11.3" y2="243.7"/>
<line class="st1" x1="29.9" y1="243.7" x2="29.9" y2="284.9"/>
<rect x="29.9" y="243.7" class="st0" width="41.2" height="41.2"/>
<rect x="-52.6" y="284.9" class="st0" width="41.2" height="41.2"/>
<line class="st1" x1="-11.3" y1="326.1" x2="-11.3" y2="284.9"/>
<line class="st1" x1="29.9" y1="284.9" x2="29.9" y2="326.1"/>
<rect x="29.9" y="284.9" class="st0" width="41.2" height="41.2"/>
<rect x="-52.6" y="326.1" class="st0" width="41.2" height="41.2"/>
<line class="st1" x1="-11.3" y1="367.4" x2="-11.3" y2="326.1"/>
<line class="st1" x1="29.9" y1="326.1" x2="29.9" y2="367.4"/>
<rect x="29.9" y="326.1" class="st0" width="41.2" height="41.2"/>
<rect x="71.1" y="326.1" class="st0" width="41.2" height="41.2"/>
<rect x="112.3" y="326.1" class="st0" width="41.2" height="41.2"/>
<rect x="-52.6" y="367.4" class="st0" width="41.2" height="41.2"/>
<rect x="-52.6" y="408.6" class="st0" width="41.2" height="41.2"/>
<rect x="-11.3" y="408.6" class="st0" width="41.2" height="41.2"/>
<rect x="29.9" y="408.6" class="st0" width="41.2" height="41.2"/>
<rect x="71.1" y="408.6" class="st0" width="41.2" height="41.2"/>
<rect x="112.3" y="408.6" class="st0" width="41.2" height="41.2"/>
<rect x="153.6" y="408.6" class="st0" width="41.2" height="41.2"/>
<rect x="194.8" y="408.6" class="st0" width="41.2" height="41.2"/>
</svg>
